<svg width="32" height="32" viewBox="0 0 32 32" fill="none" xmlns="http://www.w3.org/2000/svg">
<rect width="32" height="32" fill="#262527"/>
<path d="M6.05286 12.1981C6.05286 12.072 6.19144 11.9936 6.30157 12.0573L15.1439 17.175C15.4475 17.3507 15.634 17.6721 15.634 18.0196V27.6198C15.634 27.745 15.4972 27.8235 15.3871 27.7617L6.13638 22.5652C6.08475 22.5361 6.05286 22.482 6.05286 22.4233V12.1981Z" fill="white"/>
<path d="M20.0908 13.7746C20.5014 14.0073 20.7547 14.4392 20.7547 14.9068V25.5714L17.616 23.8943V17.8511C17.616 17.2765 17.3098 16.7442 16.8101 16.4499L10.678 12.8392V8.44043L20.0908 13.7746Z" fill="white"/>
<path d="M25.5314 10.6278C26.0503 10.9171 26.3712 11.46 26.3713 12.0485V22.3535L22.9022 20.364V14.3231C22.9022 13.7397 22.5869 13.2006 22.0752 12.9094L16.1294 9.52525V5.38574L25.5314 10.6278Z" fill="white"/>
<path d="M28.4395 10.5011C28.4395 10.0493 28.2031 9.63077 27.8166 9.39309L27.7787 9.37078L16.8761 3.1538C16.4672 2.92064 15.9634 2.92064 15.5545 3.1538L4.65191 9.37078L4.614 9.39309C4.2275 9.63077 3.99116 10.0493 3.99115 10.5011V22.4989C3.99115 22.9653 4.24303 23.3962 4.65191 23.6294L15.5545 29.8462C15.9634 30.0794 16.4672 30.0794 16.8761 29.8462L27.7787 23.6294C28.1876 23.3962 28.4395 22.9653 28.4395 22.4989V10.5011ZM29.4306 22.4989C29.4306 23.315 28.9898 24.0691 28.2743 24.4772L17.3717 30.694C16.6561 31.102 15.7745 31.102 15.059 30.694L4.15634 24.4772C3.4408 24.0691 3 23.315 3 22.4989V10.5011C3.00001 9.68503 3.44081 8.93102 4.15634 8.523L15.059 2.30602C15.7745 1.89799 16.6561 1.898 17.3717 2.30602L28.2743 8.523C28.9898 8.93102 29.4306 9.68503 29.4306 10.5011V22.4989Z" fill="white"/>
</svg>
