<svg width="537" height="178" viewBox="0 0 537 178" fill="none" xmlns="http://www.w3.org/2000/svg">
<path d="M18.7104 62.5074C18.7104 61.7347 19.5599 61.2539 20.2349 61.6446L74.4319 93.0122C76.2924 94.089 77.4354 96.0591 77.4354 98.1889V157.031C77.4354 157.798 76.5974 158.28 75.9224 157.901L19.2224 126.05C18.9059 125.872 18.7104 125.54 18.7104 125.181V62.5074Z" fill="white"/>
<path d="M104.754 72.1699C107.271 73.5961 108.823 76.2436 108.823 79.1094V144.476L89.5855 134.196V97.1562C89.5854 93.6338 87.7089 90.3713 84.6457 88.5674L47.0605 66.4365V39.4756L104.754 72.1699Z" fill="white"/>
<path d="M138.1 52.8804C141.281 54.6536 143.248 57.9812 143.248 61.5884V124.75L121.986 112.556V75.5298C121.986 71.9542 120.053 68.65 116.916 66.8647L80.473 46.1226V20.7505L138.1 52.8804Z" fill="white"/>
<path d="M155.925 52.1051C155.925 49.3364 154.476 46.7709 152.107 45.3141L151.875 45.1774L85.05 7.07194C82.5438 5.64286 79.4562 5.64286 76.95 7.07194L10.125 45.1774L9.89264 45.3141C7.52365 46.7709 6.07505 49.3364 6.075 52.1051V125.643C6.075 128.501 7.61885 131.143 10.125 132.572L76.95 170.676C79.4561 172.105 82.5439 172.105 85.05 170.676L151.875 132.572C154.381 131.143 155.925 128.501 155.925 125.643V52.1051ZM162 125.643C162 130.645 159.298 135.267 154.913 137.768L88.0875 175.873C83.7017 178.374 78.2983 178.374 73.9125 175.873L7.0875 137.768C2.70174 135.267 0 130.645 0 125.643V52.1051C5.08275e-05 47.1035 2.70183 42.482 7.0875 39.9811L73.9125 1.87565C78.2983 -0.62522 83.7017 -0.625212 88.0875 1.87565L154.913 39.9811C159.298 42.482 162 47.1035 162 52.1051V125.643Z" fill="white"/>
<path d="M471.901 65.0713H481.477L490.927 97.0123L500.692 65.0713H506.866L517.072 97.5163L526.837 65.0713H536.035L520.915 113.014H513.355L503.905 82.0813L493.636 113.014H485.824L471.901 65.0713Z" fill="white"/>
<path d="M449.083 64.6934H458.029L475.795 113.014H466.471L462.628 103.249H443.728L440.011 113.014H430.372L449.083 64.6934ZM446.941 94.9964H459.793L453.556 77.1044L446.941 94.9964Z" fill="white"/>
<path d="M401.565 65.0713H411.015V105.202H424.875V113.014H401.565V65.0713Z" fill="white"/>
<path d="M385.942 102.619C387.454 102.178 389.281 102.493 390.919 103.816C392.368 105.139 392.935 106.777 392.683 108.478C392.431 110.053 391.549 111.691 389.596 112.636C388.021 113.329 386.32 113.392 384.745 112.447C383.044 111.376 382.162 109.864 382.099 107.974C381.973 105.517 383.233 103.312 385.942 102.619Z" fill="white"/>
<path d="M325.032 88.759C325.032 75.088 336.057 64 349.728 64C363.462 64 374.55 75.088 374.55 88.759C374.55 102.493 363.462 113.518 349.728 113.518C336.057 113.518 325.032 102.493 325.032 88.759ZM349.728 104.383C358.359 104.383 365.352 97.39 365.352 88.759C365.352 80.191 358.359 73.198 349.728 73.198C341.16 73.198 334.167 80.191 334.167 88.759C334.167 97.39 341.16 104.383 349.728 104.383Z" fill="white"/>
<path d="M296.601 65.0713C302.712 65.0713 310.146 65.4493 314.934 73.7023C319.533 81.6403 319.47 95.3743 314.934 103.123C309.957 111.565 301.515 113.014 294.207 113.014H279.339V65.0713H296.601ZM288.789 105.202H291.561C296.601 105.202 302.712 105.013 306.366 99.1543C309.39 94.1773 309.831 85.1683 306.87 79.8763C302.775 72.6313 298.05 72.8833 291.687 72.8833H288.789V105.202Z" fill="white"/>
<path d="M221.895 88.759C221.895 75.088 232.92 64 246.591 64C260.325 64 271.413 75.088 271.413 88.759C271.413 102.493 260.325 113.518 246.591 113.518C232.92 113.518 221.895 102.493 221.895 88.759ZM246.591 104.383C255.222 104.383 262.215 97.39 262.215 88.759C262.215 80.191 255.222 73.198 246.591 73.198C238.023 73.198 231.03 80.191 231.03 88.759C231.03 97.39 238.023 104.383 246.591 104.383Z" fill="white"/>
<path d="M220.862 65.0713V72.8833H211.349V113.014H201.962V72.8833H192.638V65.0713H220.862Z" fill="white"/>
</svg>
