<svg width="162" height="178" viewBox="0 0 162 178" fill="none" xmlns="http://www.w3.org/2000/svg">
<path d="M18.7104 62.5074C18.7104 61.7347 19.5599 61.2539 20.2349 61.6446L74.4319 93.0122C76.2924 94.089 77.4354 96.0591 77.4354 98.1889V157.031C77.4354 157.798 76.5974 158.28 75.9224 157.901L19.2224 126.05C18.9059 125.872 18.7104 125.54 18.7104 125.181V62.5074Z" fill="white"/>
<path d="M104.754 72.1699C107.271 73.5961 108.823 76.2436 108.823 79.1094V144.476L89.5855 134.196V97.1562C89.5854 93.6338 87.7089 90.3713 84.6457 88.5674L47.0605 66.4365V39.4756L104.754 72.1699Z" fill="white"/>
<path d="M138.1 52.8804C141.281 54.6536 143.248 57.9812 143.248 61.5884V124.75L121.986 112.556V75.5298C121.986 71.9542 120.053 68.65 116.916 66.8647L80.473 46.1226V20.7505L138.1 52.8804Z" fill="white"/>
<path d="M155.925 52.1051C155.925 49.3364 154.476 46.7709 152.107 45.3141L151.875 45.1774L85.05 7.07194C82.5438 5.64286 79.4562 5.64286 76.95 7.07194L10.125 45.1774L9.89264 45.3141C7.52365 46.7709 6.07505 49.3364 6.075 52.1051V125.643C6.075 128.501 7.61885 131.143 10.125 132.572L76.95 170.676C79.4561 172.105 82.5439 172.105 85.05 170.676L151.875 132.572C154.381 131.143 155.925 128.501 155.925 125.643V52.1051ZM162 125.643C162 130.645 159.298 135.267 154.913 137.768L88.0875 175.873C83.7017 178.374 78.2983 178.374 73.9125 175.873L7.0875 137.768C2.70174 135.267 0 130.645 0 125.643V52.1051C5.08275e-05 47.1035 2.70183 42.482 7.0875 39.9811L73.9125 1.87565C78.2983 -0.62522 83.7017 -0.625212 88.0875 1.87565L154.913 39.9811C159.298 42.482 162 47.1035 162 52.1051V125.643Z" fill="white"/>
</svg>
